<svg width="19" height="21" viewBox="0 0 19 21" fill="none" xmlns="http://www.w3.org/2000/svg">
<path d="M15.1001 14.5352C14.3401 14.5352 13.6601 14.8352 13.1401 15.3052L6.01007 11.1552C6.06007 10.9252 6.10007 10.6952 6.10007 10.4552C6.10007 10.2152 6.06007 9.98517 6.01007 9.75517L13.0601 5.64517C13.6001 6.14517 14.3101 6.45517 15.1001 6.45517C16.7601 6.45517 18.1001 5.11517 18.1001 3.45517C18.1001 1.79517 16.7601 0.45517 15.1001 0.45517C13.4401 0.45517 12.1001 1.79517 12.1001 3.45517C12.1001 3.69517 12.1401 3.92517 12.1901 4.15517L5.14007 8.26517C4.60007 7.76517 3.89007 7.45517 3.10007 7.45517C1.44007 7.45517 0.100067 8.79517 0.100067 10.4552C0.100067 12.1152 1.44007 13.4552 3.10007 13.4552C3.89007 13.4552 4.60007 13.1452 5.14007 12.6452L12.2601 16.8052C12.2101 17.0152 12.1801 17.2352 12.1801 17.4552C12.1801 19.0652 13.4901 20.3752 15.1001 20.3752C16.7101 20.3752 18.0201 19.0652 18.0201 17.4552C18.0201 15.8452 16.7101 14.5352 15.1001 14.5352Z" fill="white"/>
</svg>
